<?xml version="1.0" encoding="UTF-8"?>
<!DOCTYPE svg PUBLIC "-//W3C//DTD SVG 1.1//EN" "http://www.w3.org/Graphics/SVG/1.1/DTD/svg11.dtd">
<svg xmlns="http://www.w3.org/2000/svg" version="1.1" width="80px" height="80px" style="shape-rendering:geometricPrecision; text-rendering:geometricPrecision; image-rendering:optimizeQuality; fill-rule:evenodd; clip-rule:evenodd" xmlns:xlink="http://www.w3.org/1999/xlink">
<g><path style="opacity:0.846" fill="#7f5e5e" d="M 44.5,4.5 C 58.7355,3.7315 67.0689,10.3982 69.5,24.5C 78.3955,32.2837 78.7288,40.4504 70.5,49C 64.1368,50.4683 58.1368,52.8016 52.5,56C 49.8333,56.3333 47.1667,56.6667 44.5,57C 46.764,66.083 43.0973,70.4163 33.5,70C 30.8515,74.5323 27.1849,75.5323 22.5,73C 18.8435,66.145 20.8435,62.3116 28.5,61.5C 28.2865,59.8561 28.6198,58.3561 29.5,57C 26.3634,56.3989 23.3634,55.3989 20.5,54C 15.787,50.3204 10.9536,46.8204 6,43.5C -0.49773,32.1655 2.00227,23.4988 13.5,17.5C 18.9278,8.13194 26.9278,4.79861 37.5,7.5C 40.0342,6.7268 42.3675,5.7268 44.5,4.5 Z"/></g>
<g><path style="opacity:1" fill="#f1d6d4" d="M 44.5,7.5 C 58.0106,6.67713 65.344,13.0105 66.5,26.5C 74.5776,31.803 75.5776,38.303 69.5,46C 66.0433,47.7435 62.3767,48.7435 58.5,49C 51.6697,54.8122 44.6697,54.9788 37.5,49.5C 30.2536,55.4028 23.9202,54.5695 18.5,47C 8.72166,44.6069 4.55499,38.4402 6,28.5C 8.24551,24.5852 11.4122,21.7519 15.5,20C 20.6523,10.4934 28.1523,7.6601 38,11.5C 40.3143,10.2668 42.4809,8.93342 44.5,7.5 Z"/></g>
<g><path style="opacity:1" fill="#7f5d5d" d="M 44.5,9.5 C 58.1859,8.84704 64.1859,15.1804 62.5,28.5C 64.0207,28.8797 65.6874,29.0464 67.5,29C 72.7318,34.299 72.7318,39.6323 67.5,45C 60.4745,46.3613 53.8078,48.528 47.5,51.5C 43.8393,51.2276 40.6727,49.8943 38,47.5C 34.3457,50.5816 30.179,51.7482 25.5,51C 22.4659,49.8088 20.7993,47.6421 20.5,44.5C 12.3363,44.6702 8.00298,40.6702 7.5,32.5C 8.17738,25.8226 11.844,22.1559 18.5,21.5C 22.5517,11.0849 29.5517,8.75155 39.5,14.5C 40.8818,12.4514 42.5484,10.7847 44.5,9.5 Z"/></g>
<g><path style="opacity:1" fill="#e1c5c3" d="M 57.5,34.5 C 59.337,34.6395 59.6704,35.3061 58.5,36.5C 57.7025,36.0431 57.3691,35.3764 57.5,34.5 Z"/></g>
<g><path style="opacity:1" fill="#e1c5c3" d="M 60.5,31.5 C 62.337,31.6395 62.6704,32.3061 61.5,33.5C 60.7025,33.0431 60.3691,32.3764 60.5,31.5 Z"/></g>
<g><path style="opacity:1" fill="#e1c5c3" d="M 27.5,22.5 C 29.337,22.6395 29.6704,23.3061 28.5,24.5C 27.7025,24.0431 27.3691,23.3764 27.5,22.5 Z"/></g>
<g><path style="opacity:1" fill="#e1c5c3" d="M 24.5,20.5 C 26.337,20.6395 26.6704,21.3061 25.5,22.5C 24.7025,22.0431 24.3691,21.3764 24.5,20.5 Z"/></g>
<g><path style="opacity:1" fill="#e1c5c3" d="M 43.5,19.5 C 45.337,19.6395 45.6704,20.3061 44.5,21.5C 43.7025,21.0431 43.3691,20.3764 43.5,19.5 Z"/></g>
<g><path style="opacity:1" fill="#e1c5c3" d="M 20.5,19.5 C 22.337,19.6395 22.6704,20.3061 21.5,21.5C 20.7025,21.0431 20.3691,20.3764 20.5,19.5 Z"/></g>
<g><path style="opacity:1" fill="#e1c5c3" d="M 41.5,15.5 C 43.337,15.6395 43.6704,16.3061 42.5,17.5C 41.7025,17.0431 41.3691,16.3764 41.5,15.5 Z"/></g>
<g><path style="opacity:1" fill="#f1d6d4" d="M 34.5,55.5 C 42.8185,55.9869 44.4851,59.4869 39.5,66C 31.0878,65.8117 29.4211,62.3117 34.5,55.5 Z"/></g>
<g><path style="opacity:1" fill="#826161" d="M 35.5,57.5 C 40.4928,57.997 41.4928,60.1637 38.5,64C 33.3823,63.8242 32.3823,61.6576 35.5,57.5 Z"/></g>
<g><path style="opacity:1" fill="#f8dddb" d="M 25.5,64.5 C 30.4928,64.997 31.4928,67.1637 28.5,71C 23.3823,70.8242 22.3823,68.6576 25.5,64.5 Z"/></g>
<g><path style="opacity:1" fill="#906f6e" d="M 25.5,66.5 C 26.5,66.5 27.5,66.5 28.5,66.5C 28.5,67.5 28.5,68.5 28.5,69.5C 27.5,69.5 26.5,69.5 25.5,69.5C 25.5,68.5 25.5,67.5 25.5,66.5 Z"/></g>
</svg>
